<?xml version="1.0" encoding="UTF-8" standalone="no"?>
<svg
   role="img"
   viewBox="0 0 100 100"
   version="1.1"
   id="svg6"
   sodipodi:docname="discord.svg"
   width="100"
   height="100"
   inkscape:version="1.1.2 (b8e25be833, 2022-02-05)"
   xmlns:inkscape="http://www.inkscape.org/namespaces/inkscape"
   xmlns:sodipodi="http://sodipodi.sourceforge.net/DTD/sodipodi-0.dtd"
   xmlns="http://www.w3.org/2000/svg"
   xmlns:svg="http://www.w3.org/2000/svg"
   xmlns:rdf="http://www.w3.org/1999/02/22-rdf-syntax-ns#"
   xmlns:cc="http://creativecommons.org/ns#"
   xmlns:dc="http://purl.org/dc/elements/1.1/">
  <defs
     id="defs10" />
  <sodipodi:namedview
     id="namedview8"
     pagecolor="#505050"
     bordercolor="#eeeeee"
     borderopacity="1"
     inkscape:pageshadow="0"
     inkscape:pageopacity="0"
     inkscape:pagecheckerboard="0"
     showgrid="false"
     inkscape:zoom="3.2534894"
     inkscape:cx="31.811999"
     inkscape:cy="11.98713"
     inkscape:window-width="1920"
     inkscape:window-height="1017"
     inkscape:window-x="-8"
     inkscape:window-y="-8"
     inkscape:window-maximized="1"
     inkscape:current-layer="svg6" />
  <title
     id="title2">Discord</title>
  <path
     d="M 84.654066,18.318562 A 82.463635,82.463635 0 0 0 64.299511,12.005237 0.30874957,0.30874957 0 0 0 63.972428,12.15982 c -0.879166,1.563748 -1.852915,3.603329 -2.53458,5.206243 -7.686239,-1.150831 -15.333312,-1.150831 -22.861635,0 -0.681665,-1.638748 -1.690831,-3.642495 -2.573746,-5.206243 a 0.32083288,0.32083288 0 0 0 -0.327083,-0.154166 82.23447,82.23447 0 0 0 -20.354972,6.312491 0.29124959,0.29124959 0 0 0 -0.13375,0.115417 C 2.2225135,37.801869 -1.3291481,56.693925 0.4133494,75.351817 a 0.34333285,0.34333285 0 0 0 0.12999982,0.233748 C 9.0966707,81.867224 17.382076,85.680552 25.513731,88.208049 a 0.32374955,0.32374955 0 0 0 0.350834,-0.115 c 1.92333,-2.626664 3.637911,-5.39666 5.108326,-8.309155 a 0.31666623,0.31666623 0 0 0 -0.173334,-0.440417 c -2.719996,-1.031665 -5.309576,-2.28958 -7.800823,-3.717912 a 0.32083288,0.32083288 0 0 1 -0.03167,-0.532082 c 0.524166,-0.392915 1.048749,-0.801249 1.549164,-1.214164 a 0.30958291,0.30958291 0 0 1 0.323334,-0.04375 c 16.36581,7.472073 34.083286,7.472073 50.255763,0 a 0.30791624,0.30791624 0 0 1 0.327083,0.03958 c 0.500833,0.412499 1.024998,0.825416 1.553332,1.218331 a 0.32083288,0.32083288 0 0 1 -0.0275,0.531666 51.244096,51.244096 0 0 1 -7.804157,3.714161 0.31916623,0.31916623 0 0 0 -0.169583,0.444584 c 1.501665,2.908329 3.216246,5.678325 5.10416,8.304988 a 0.31666623,0.31666623 0 0 0 0.350833,0.119167 c 8.170826,-2.527911 16.456231,-6.341239 25.009553,-12.622481 a 0.32083288,0.32083288 0 0 0 0.130416,-0.229998 C 101.65446,53.784762 96.076966,35.047705 84.784065,18.437312 A 0.25416631,0.25416631 0 0 0 84.654066,18.318145 Z M 33.416637,63.990999 c -4.927077,0 -8.98707,-4.523744 -8.98707,-10.079153 0,-5.554992 3.981243,-10.078736 8.987487,-10.078736 5.044993,0 9.065404,4.563327 8.986654,10.079152 0,5.554993 -3.981245,10.078737 -8.987071,10.078737 z m 33.228287,0 c -4.927076,0 -8.987071,-4.523744 -8.987071,-10.079153 0,-5.554992 3.980828,-10.078736 8.987071,-10.078736 5.044994,0 9.065404,4.563327 8.986654,10.079152 0,5.554993 -3.94166,10.078737 -8.986654,10.078737 z"
     id="path4"
     style="stroke-width:4.16666;fill:#8194a7;fill-opacity:1" />
  <metadata
     id="metadata829">
    <rdf:RDF>
      <cc:Work
         rdf:about="">
        <dc:title>Discord</dc:title>
      </cc:Work>
    </rdf:RDF>
  </metadata>
</svg>
