<?xml version="1.0" encoding="UTF-8" standalone="no"?>
<!-- Created with Inkscape (http://www.inkscape.org/) -->

<svg
   width="124.74922mm"
   height="125.63828mm"
   viewBox="0 0 124.74922 125.63829"
   version="1.1"
   id="svg5"
   inkscape:version="1.1.2 (b8e25be833, 2022-02-05)"
   sodipodi:docname="ipcv0-small.svg"
   inkscape:export-filename="C:\Users\johnn\Desktop\ipcv0-small.png"
   inkscape:export-xdpi="96"
   inkscape:export-ydpi="96"
   xmlns:inkscape="http://www.inkscape.org/namespaces/inkscape"
   xmlns:sodipodi="http://sodipodi.sourceforge.net/DTD/sodipodi-0.dtd"
   xmlns="http://www.w3.org/2000/svg"
   xmlns:svg="http://www.w3.org/2000/svg">
  <sodipodi:namedview
     id="namedview7"
     pagecolor="#646464"
     bordercolor="#999999"
     borderopacity="1"
     inkscape:pageshadow="0"
     inkscape:pageopacity="0"
     inkscape:pagecheckerboard="0"
     inkscape:document-units="mm"
     showgrid="false"
     inkscape:snap-global="false"
     inkscape:zoom="0.33712938"
     inkscape:cx="84.537277"
     inkscape:cy="575.44673"
     inkscape:window-width="1920"
     inkscape:window-height="1017"
     inkscape:window-x="-8"
     inkscape:window-y="-8"
     inkscape:window-maximized="1"
     inkscape:current-layer="layer5" />
  <defs
     id="defs2">
    <rect
       x="179.47362"
       y="304.59961"
       width="151.66785"
       height="199.69601"
       id="rect41305" />
  </defs>
  <g
     inkscape:groupmode="layer"
     id="layer2"
     inkscape:label="Layer 2"
     style="display:inline;opacity:1"
     transform="translate(-0.08362961,0.13863754)" />
  <g
     inkscape:groupmode="layer"
     id="layer5"
     inkscape:label="Layer 1">
    <g
       id="g8405">
      <ellipse
         style="display:inline;opacity:1;fill:#ffffff;fill-opacity:1;stroke:#000000;stroke-width:2.5;stroke-linecap:round;stroke-linejoin:round;stroke-miterlimit:4;stroke-dasharray:none;stroke-opacity:1;paint-order:fill markers stroke"
         id="path1070"
         cx="62.458241"
         cy="62.680504"
         rx="61.124611"
         ry="61.569141"
         transform="translate(-0.08362961,0.13863754)" />
      <ellipse
         style="display:inline;opacity:1;fill:#ffffff;fill-opacity:1;stroke:#000000;stroke-width:11.6812;stroke-linecap:round;stroke-linejoin:round;stroke-miterlimit:4;stroke-dasharray:none;stroke-opacity:1;paint-order:fill markers stroke"
         id="path1070-3"
         cx="62.49522"
         cy="62.871174"
         rx="43.109524"
         ry="43.423038"
         transform="translate(-0.08362961,0.13863754)" />
      <circle
         style="display:inline;opacity:1;fill:#000000;fill-opacity:1;stroke:none;stroke-width:3.57003;stroke-linecap:round;stroke-linejoin:round;stroke-miterlimit:4;stroke-dasharray:none;stroke-opacity:1;paint-order:fill markers stroke"
         id="path1617"
         cx="62.404453"
         cy="7.6447916"
         r="3"
         transform="translate(-0.08362961,0.13863754)" />
      <circle
         style="display:inline;opacity:0.823171;fill:#000000;fill-opacity:1;stroke:none;stroke-width:3.57003;stroke-linecap:round;stroke-linejoin:round;stroke-miterlimit:4;stroke-dasharray:none;stroke-opacity:1;paint-order:fill markers stroke"
         id="path1617-3"
         cx="89.310898"
         cy="15.15669"
         r="3"
         transform="translate(-0.08362961,0.13863754)" />
      <circle
         style="display:inline;opacity:0.823171;fill:#000000;fill-opacity:1;stroke:none;stroke-width:3.57003;stroke-linecap:round;stroke-linejoin:round;stroke-miterlimit:4;stroke-dasharray:none;stroke-opacity:1;paint-order:fill markers stroke"
         id="path1617-2"
         cx="109.64155"
         cy="34.877689"
         r="3"
         transform="translate(-0.08362961,0.13863754)" />
      <circle
         style="display:inline;opacity:0.823171;fill:#000000;fill-opacity:1;stroke:none;stroke-width:3.57003;stroke-linecap:round;stroke-linejoin:round;stroke-miterlimit:4;stroke-dasharray:none;stroke-opacity:1;paint-order:fill markers stroke"
         id="path1617-7"
         cx="116.93367"
         cy="62.458729"
         r="3"
         transform="translate(-0.08362961,0.13863754)" />
      <circle
         style="display:inline;opacity:0.823171;fill:#000000;fill-opacity:1;stroke:none;stroke-width:3.57003;stroke-linecap:round;stroke-linejoin:round;stroke-miterlimit:4;stroke-dasharray:none;stroke-opacity:1;paint-order:fill markers stroke"
         id="path1617-72"
         cx="109.47907"
         cy="89.717834"
         r="3"
         transform="translate(-0.08362961,0.13863754)" />
      <circle
         style="display:inline;opacity:0.823171;fill:#000000;fill-opacity:1;stroke:none;stroke-width:3.57003;stroke-linecap:round;stroke-linejoin:round;stroke-miterlimit:4;stroke-dasharray:none;stroke-opacity:1;paint-order:fill markers stroke"
         id="path1617-5"
         cx="89.553856"
         cy="109.76378"
         r="3"
         transform="translate(-0.08362961,0.13863754)" />
      <circle
         style="display:inline;opacity:0.823171;fill:#000000;fill-opacity:1;stroke:none;stroke-width:3.57003;stroke-linecap:round;stroke-linejoin:round;stroke-miterlimit:4;stroke-dasharray:none;stroke-opacity:1;paint-order:fill markers stroke"
         id="path1617-0"
         cx="62.458729"
         cy="116.68922"
         r="3"
         transform="translate(-0.08362961,0.13863754)" />
      <circle
         style="display:inline;opacity:0.823171;fill:#000000;fill-opacity:1;stroke:none;stroke-width:3.57003;stroke-linecap:round;stroke-linejoin:round;stroke-miterlimit:4;stroke-dasharray:none;stroke-opacity:1;paint-order:fill markers stroke"
         id="path1617-23"
         cx="35.365108"
         cy="109.72353"
         r="3"
         transform="translate(-0.08362961,0.13863754)" />
      <circle
         style="display:inline;opacity:0.823171;fill:#000000;fill-opacity:1;stroke:none;stroke-width:3.57003;stroke-linecap:round;stroke-linejoin:round;stroke-miterlimit:4;stroke-dasharray:none;stroke-opacity:1;paint-order:fill markers stroke"
         id="path1617-36"
         cx="15.198439"
         cy="89.228905"
         r="3"
         transform="translate(-0.08362961,0.13863754)" />
      <circle
         style="display:inline;opacity:0.823171;fill:#000000;fill-opacity:1;stroke:none;stroke-width:3.57003;stroke-linecap:round;stroke-linejoin:round;stroke-miterlimit:4;stroke-dasharray:none;stroke-opacity:1;paint-order:fill markers stroke"
         id="path1617-1"
         cx="8.1075125"
         cy="62.09354"
         r="3"
         transform="translate(-0.08362961,0.13863754)" />
      <circle
         style="display:inline;opacity:0.823171;fill:#000000;fill-opacity:1;stroke:none;stroke-width:3.57003;stroke-linecap:round;stroke-linejoin:round;stroke-miterlimit:4;stroke-dasharray:none;stroke-opacity:1;paint-order:fill markers stroke"
         id="path1617-4"
         cx="15.481636"
         cy="35.242878"
         r="3"
         transform="translate(-0.08362961,0.13863754)" />
      <circle
         style="display:inline;opacity:0.823171;fill:#000000;fill-opacity:1;stroke:none;stroke-width:3.57003;stroke-linecap:round;stroke-linejoin:round;stroke-miterlimit:4;stroke-dasharray:none;stroke-opacity:1;paint-order:fill markers stroke"
         id="path1617-8"
         cx="34.998417"
         cy="14.871987"
         r="3"
         transform="translate(-0.08362961,0.13863754)" />
      <path
         style="display:inline;opacity:1;fill:#000000;stroke-width:0.741;stroke-miterlimit:4;stroke-dasharray:none;stroke:#000000;stroke-opacity:1"
         d="M 52.279515,64.536123 C 52.264163,52.630584 52.264358,52.640125 52.062671,51.845203 51.944446,51.379151 51.633288,50.716144 51.369301,50.367773 51.134172,50.05748 50.734665,49.686782 50.4258,49.492285 l -0.22861,-0.143963 -0.0019,-0.363003 -0.0019,-0.362994 0.832912,-0.403013 c 4.080022,-1.974126 7.267037,-3.1927 9.100328,-3.479548 0.55853,-0.08735 1.485299,-0.06092 2.082353,0.05946 1.99966,0.403189 3.86345,1.600357 5.641408,3.623646 1.802433,2.051136 2.838839,4.171431 3.200968,6.5486 0.107936,0.708546 0.147597,2.021511 0.08113,2.686335 -0.225336,2.254241 -1.139348,4.449534 -2.757418,6.622791 -2.061872,2.769369 -4.251821,4.216795 -6.541487,4.323566 -1.020054,0.04761 -2.000651,-0.115039 -2.658236,-0.440781 -0.560843,-0.277832 -1.100941,-0.90554 -2.030344,-2.35968 -0.810516,-1.268125 -1.229688,-1.833135 -1.359981,-1.833135 -0.0788,0 -0.08006,0.06646 -0.07967,4.205699 4.08e-4,2.555517 0.01662,4.350935 0.04188,4.575872 0.08132,0.72556 0.299033,1.185821 0.770798,1.629885 0.15401,0.144984 0.402265,0.324663 0.555381,0.401994 l 0.27688,0.139834 v 0.384592 0.384592 H 54.8221 52.294001 L 52.279621,64.53613 Z"
         id="path2669"
         transform="translate(-0.08362961,0.13863754)" />
      <path
         style="display:inline;opacity:1;fill:#000000;stroke-width:0.741;stroke-miterlimit:4;stroke-dasharray:none;stroke:#000000;stroke-opacity:1"
         d="m 80.959571,68.284612 c -2.451837,-0.279843 -4.522978,-1.537698 -6.185635,-3.756689 -1.033928,-1.37989 -1.752861,-2.997445 -2.102369,-4.730223 -0.378267,-1.875371 -0.34733,-4.12558 0.08317,-6.0496 0.247051,-1.104137 0.542343,-1.934543 1.067226,-3.001302 1.166417,-2.370581 2.965187,-4.253298 4.931618,-5.161802 1.618332,-0.747672 3.483268,-0.956802 5.290841,-0.593303 1.917695,0.385651 3.620693,1.43256 4.968374,3.054303 l 0.21662,0.260663 -0.368094,0.397437 c -0.463507,0.500466 -1.719875,1.738588 -2.19643,2.164542 -0.210937,0.188531 -0.376305,0.307573 -0.396952,0.28575 -0.01943,-0.0206 -0.118458,-0.251229 -0.220001,-0.512553 -0.816094,-2.100367 -2.040662,-3.35934 -3.575057,-3.675511 -0.365956,-0.0754 -1.209974,-0.08725 -1.577738,-0.02215 -1.174899,0.208051 -2.227998,0.989721 -3.072666,2.280708 -0.301452,0.460727 -0.873672,1.620198 -1.096161,2.221099 -0.346777,0.936583 -0.579662,1.876003 -0.732039,2.952887 -0.104137,0.735984 -0.103146,2.913779 0.0019,3.689852 0.271808,2.01232 0.845018,3.500165 1.876362,4.870377 1.02739,1.364956 2.219458,2.147422 3.741125,2.455656 0.233429,0.04732 0.66492,0.09026 1.055022,0.105186 1.30491,0.04984 2.434542,-0.161132 3.466469,-0.647306 0.686909,-0.323614 1.132596,-0.676036 2.310546,-1.827034 0.362371,-0.354074 0.744369,-0.687132 0.885049,-0.771642 0.247371,-0.148608 0.73751,-0.31416 0.786148,-0.265531 0.0616,0.0616 -0.239929,1.015973 -0.515973,1.633042 -1.26796,2.834331 -4.41239,4.718748 -7.815384,4.683653 -0.284506,-0.0029 -0.656099,-0.02118 -0.825761,-0.04052 z"
         id="path2681"
         transform="translate(-0.08362961,0.13863754)" />
      <path
         style="display:inline;opacity:1;fill:#000000;stroke-width:0.741;stroke:#000000;stroke-opacity:1;stroke-miterlimit:4;stroke-dasharray:none"
         d="m 47.576877,69.461911 c -0.272459,-0.135773 -0.391413,-0.266726 -0.740434,-0.815132 l -0.292921,-0.460241 -4.802578,-0.01049 -4.802588,-0.01049 0.0275,-0.503692 c 0.01516,-0.277025 0.03644,-0.54996 0.04742,-0.606518 l 0.01992,-0.102825 1.222605,-4.08e-4 c 1.183867,-4.18e-4 1.230145,-0.0029 1.460446,-0.096 0.351897,-0.141583 0.565117,-0.322876 0.707759,-0.601776 l 0.123822,-0.242096 0.01088,-5.630652 0.01088,-5.630652 0.165854,0.131352 c 0.09123,0.07229 0.176619,0.120577 0.189794,0.107411 0.04207,-0.04207 -0.06626,-0.391277 -0.203446,-0.655545 l -0.132789,-0.255776 -0.02196,-3.002604 c -0.02147,-2.942597 -0.02371,-3.009171 -0.113348,-3.331649 -0.191582,-0.689366 -0.477109,-1.088154 -0.930423,-1.299488 -0.2659,-0.123958 -0.720341,-0.250112 -1.525601,-0.423476 -0.580411,-0.124959 -1.184295,-0.314355 -1.501302,-0.470862 l -0.22622,-0.111686 -0.01137,-0.646742 -0.01137,-0.646743 h 0.311294 c 0.295709,0 0.346748,0.01526 1.019053,0.303939 0.389256,0.167166 0.837314,0.347633 0.995667,0.401032 l 0.287927,0.09706 4.143992,0.01127 4.143992,0.01127 v 0.48632 0.48631 l -0.66838,0.02662 c -0.709042,0.02827 -1.10231,0.08948 -1.470453,0.228814 -0.451342,0.170848 -0.82168,0.552107 -0.976419,1.005227 -0.06811,0.199481 -0.07306,0.732196 -0.08366,8.952546 -0.0068,5.274596 0.0039,8.903538 0.02769,9.151755 0.02138,0.22622 0.07773,0.535202 0.12526,0.686617 0.114436,0.364956 0.383767,0.760489 0.629797,0.924914 0.213356,0.142584 0.290356,0.161258 1.326141,0.321496 0.842181,0.130293 2.435086,0.526943 2.54243,0.633091 0.04256,0.04207 0.09434,0.189386 0.120771,0.343551 0.04508,0.263035 0.04294,0.276453 -0.08307,0.531004 -0.17729,0.358145 -0.633334,0.815638 -0.813703,0.816279 -0.0238,0 -0.135929,-0.04596 -0.249092,-0.102379 z"
         id="path2679"
         transform="translate(-0.08362961,0.13863754)" />
      <path
         style="display:inline;opacity:1;fill:#ffffff;fill-opacity:1;stroke-width:0.0411314"
         d="m 61.812316,66.172449 c 1.018713,-0.19506 1.914469,-0.769398 2.634723,-1.689356 1.1492,-1.467811 1.88328,-3.614339 2.073541,-6.063223 0.0548,-0.705038 0.05538,-2.300586 9.71e-4,-2.988398 -0.201861,-2.559968 -0.822321,-4.616 -1.866763,-6.185976 -0.377363,-0.567225 -1.100056,-1.299314 -1.613561,-1.634548 -0.875216,-0.571355 -1.853763,-0.826451 -2.99591,-0.780999 -0.632342,0.02517 -1.036134,0.11977 -1.540758,0.361021 -1.133509,0.541896 -2.126416,1.717708 -2.528391,2.99416 -0.245875,0.780776 -0.241221,0.697791 -0.259721,4.623394 l -0.017,3.609287 h 0.09824 c 0.297468,0 1.31585,-0.455326 2.649287,-1.184519 0.851849,-0.465838 2.20603,-1.122665 2.513515,-1.219146 l 0.09376,-0.02944 -0.01156,0.52053 -0.01156,0.52053 -0.212335,0.07472 c -0.606411,0.213375 -1.229815,0.72178 -1.638872,1.336556 -0.277317,0.416781 -0.594217,1.074201 -0.754067,1.56434 -0.367511,1.126853 -0.481898,2.713588 -0.253522,3.51674 0.206982,0.72792 0.656459,1.491197 1.188988,2.019082 0.378238,0.374935 0.77993,0.616302 1.155662,0.694439 0.225539,0.04693 0.902673,0.01593 1.295087,-0.05917 z"
         id="path2671"
         transform="translate(-0.08362961,0.13863754)" />
      <path
         d="m 58.154754,92.114156 -3.16997,-0.10604 q 0.0817,-0.22732 -0.0817,-0.53041 -0.1636,-0.31825 -0.36812,-0.68196 -0.20451,-0.36372 -0.34767,-0.74258 -0.14316,-0.39403 -0.0409,-0.78806 l -0.16361,-0.45463 -0.16361,-0.62135 q -0.16361,-0.27278 -0.20452,-0.66682 -0.0409,-0.40917 -0.14316,-0.71227 l -0.24541,-0.6365 -0.14316,-0.33339 q -0.0614,-0.54558 -0.24542,-1.16692 -0.18406,-0.62136 -0.42948,-1.27301 -0.22496,-0.66681 -0.42947,-1.33361 -0.20452,-0.68197 -0.28632,-1.36393 l -0.36813,-0.28794 q 0.24542,-0.0455 0.42948,-0.0607 0.20451,-0.0151 0.36812,-0.0302 0.18407,-0.0151 0.38858,-0.0151 0.20451,-0.0151 0.49083,-0.0455 0.0614,0.0455 0.24542,0.0302 0.20451,-0.0151 0.40903,0 0.22496,0 0.40903,0.0455 0.18406,0.0455 0.22496,0.19702 0.10226,0.0909 0.10226,0.25764 0,0.15153 -0.0409,0.34854 -0.0205,0.18186 -0.0613,0.39404 -0.0409,0.21216 0,0.39401 0,0.0909 0.0205,0.36372 0.0409,0.25762 0.0614,0.56071 0.0409,0.30311 0.0409,0.56073 0.0205,0.25764 -0.0205,0.31826 l 0.16361,0.12125 q 0.14316,0.13637 0.12271,0.42431 -0.0205,0.28794 0.10225,0.59104 l 0.16362,0.34857 0.26586,0.81834 q -0.0613,0.37888 0.0204,0.69713 0.0818,0.30309 0.20453,0.59103 0.1227,0.27279 0.26585,0.53042 0.16361,0.24248 0.26587,0.5001 0.041,0.45466 0.20452,0.84867 0.16362,0.37888 0.28631,0.89412 0.32723,-0.60618 0.42949,-0.93958 0.12271,-0.3334 0.22496,-0.59103 0.0818,-0.39403 0.20451,-0.68197 0.14316,-0.3031 0.28631,-0.57588 0.14318,-0.28794 0.24543,-0.59104 0.12271,-0.31824 0.16361,-0.75773 l 0.20452,-0.75774 0.14315,-0.39402 q 0.14317,-0.19702 0.14317,-0.4698 0.0204,-0.28794 0.18406,-0.43949 l 0.0204,-0.24248 q 0.0204,0.0302 0,-0.16669 0,-0.19701 0,-0.48496 0,-0.28793 0.0204,-0.60618 0.0409,-0.31827 0.14315,-0.53042 0.0614,-0.15155 0.0408,-0.31825 0,-0.1667 -0.0408,-0.33342 -0.0204,-0.1667 -0.0408,-0.31824 -0.0204,-0.15155 0.0204,-0.27279 0.0408,-0.18185 0.22495,-0.25764 0.18407,-0.0758 0.40904,-0.0909 0.22496,-0.0302 0.42947,-0.0151 0.22498,0 0.30678,-0.0302 0.49083,0.0607 0.81805,0.0909 0.34768,0.0151 0.7976,0.0607 l -0.0614,0.3031 q -0.44993,0.57587 -0.65444,1.21239 -0.18406,0.62134 -0.30676,1.28814 -0.10224,0.66682 -0.22498,1.37909 -0.1227,0.6971 -0.40902,1.4397 l -0.20452,0.18185 -0.26586,0.59103 q -0.0409,0.4395 -0.14317,0.74259 -0.0818,0.28794 -0.1227,0.63651 l -0.22497,0.65165 -0.12271,0.39402 q -0.10223,0.43949 -0.28632,0.8032 -0.18406,0.34857 -0.32722,0.66681 -0.14316,0.31824 -0.22497,0.62134 -0.0614,0.3031 0.0614,0.6365 z"
         style="display:inline;opacity:1;font-size:133.333px;line-height:1.25;font-family:'Xiphos Horror';-inkscape-font-specification:'Xiphos Horror';white-space:pre;stroke-width:0.332;stroke:#000000;stroke-opacity:1;stroke-miterlimit:4;stroke-dasharray:none"
         id="path51859-9"
         transform="translate(-0.08362961,0.13863754)" />
      <path
         d="m 73.123224,83.586166 q 0,-0.28238 -0.0817,-0.90766 -0.0544,-0.62528 -0.24498,-1.43208 -0.19054,-0.80681 -0.51717,-1.67413 -0.29942,-0.88749 -0.81659,-1.67413 -0.51718,-0.78663 -1.25211,-1.39174 -0.70771,-0.6051 -1.68762,-0.84715 -0.73493,0.38324 -1.41542,1.08919 -0.65328,0.68579 -1.27933,1.53294 -0.62605,0.84715 -1.19767,1.77497 -0.57161,0.90766 -1.11601,1.75481 -0.54439,0.82698 -1.03434,1.4926 -0.48996,0.64544 -0.97991,0.98833 l 1.63318,0.36307 q 0,0.18153 0,0.30255 0.0272,0.12102 0.0272,0.22187 v 0.12102 q 0.10888,0.20171 0.21776,0.66562 0.10887,0.46391 0.21775,1.00851 0.1361,0.52442 0.2722,1.02868 0.1361,0.48408 0.29942,0.7463 0.1361,0.44374 0.38107,1.04885 0.24498,0.6051 0.62606,1.1497 0.38107,0.52442 0.89825,0.86731 0.51717,0.32273 1.19766,0.22188 1.22489,-0.10085 2.09592,-0.56477 0.89825,-0.46391 1.49708,-1.1497 0.62606,-0.68579 0.97991,-1.53293 0.35386,-0.84715 0.51718,-1.71447 0.16332,-0.88749 0.16332,-1.73464 0.0272,-0.84714 -0.0272,-1.53293 z m -5.03564,7.78569 q -0.5444,-0.10085 -0.73494,-0.48408 -0.19054,-0.38324 -0.21776,-0.70596 -0.0544,-0.80681 -0.10887,-1.39174 -0.0272,-0.60511 -0.0817,-1.08919 -0.0544,-0.48409 -0.1361,-0.92783 -0.0544,-0.44375 -0.19054,-0.948 l 0.1361,-1.77498 v -1.43208 q -0.0544,-0.58494 0.0272,-1.10936 0.0817,-0.52443 0.21776,-1.08919 0.13609,-0.58494 0.29941,-1.23038 0.16332,-0.66562 0.32664,-1.4926 -0.21776,-0.0403 -0.24498,-0.2017 -0.0272,-0.16136 0.10888,-0.34289 0.1361,-0.2017 0.4083,-0.36307 0.29941,-0.16136 0.70771,-0.22187 0.10888,0.0403 0.19054,0.18153 0.0817,0.12103 0.16331,0.28239 0.0817,0.16136 0.1361,0.32272 0.0817,0.14119 0.1361,0.22187 0.0544,0.22187 0.1361,0.58494 0.0817,0.36306 0,0.50425 l -0.0272,8.97574 q -0.0817,-0.16137 -0.10888,0.12102 0,0.28238 -0.0272,0.72612 0,0.42358 -0.0272,0.84715 -0.0272,0.42357 -0.1361,0.56477 -0.0272,0.24204 -0.0817,0.50425 -0.0272,0.26221 -0.13609,0.48409 -0.10888,0.22187 -0.29942,0.36306 -0.19054,0.12102 -0.51717,0.0605 z"
         style="display:inline;opacity:1;font-size:133.333px;line-height:1.25;font-family:'Xiphos Horror';-inkscape-font-specification:'Xiphos Horror';white-space:pre;stroke-width:0.376;stroke:#000000;stroke-opacity:1;stroke-miterlimit:4;stroke-dasharray:none"
         id="path51861-5"
         transform="translate(-0.08362961,0.13863754)" />
      <path
         style="fill:#ffffff;fill-opacity:1;stroke:none;stroke-width:12;stroke-linecap:round;stroke-linejoin:round;stroke-miterlimit:4;stroke-dasharray:none;stroke-opacity:1;paint-order:fill markers stroke"
         id="path6972"
         d="m 32.901524,11.383413 c 0.349552,14.114399 -0.163904,28.228146 -0.759433,42.328069 -0.506315,9.8468 -0.234162,5.021503 -0.810919,14.476204 0,0 1.634995,0.0096 1.634995,0.0096 v 0 c 0.535274,-9.457013 0.284295,-4.630642 0.747395,-14.4794 0.554953,-14.106461 1.014005,-28.216438 1.118246,-42.334475 0,0 -1.930284,0 -1.930284,0 z" />
      <path
         style="fill:#ffffff;fill-opacity:1;stroke:none;stroke-width:12;stroke-linecap:round;stroke-linejoin:round;stroke-miterlimit:4;stroke-dasharray:none;stroke-opacity:1;paint-order:fill markers stroke"
         id="path6974"
         d="m 98.503249,27.217901 c 0.475023,11.406897 0.196639,22.816942 -0.132577,34.223542 -0.373547,13.000847 -1.137589,25.983305 -2.017115,38.957957 0,0 1.585852,0.01 1.585852,0.01 v 0 c 0.736674,-12.982654 1.420966,-25.968173 1.910464,-38.962948 0.307107,-8.284649 0.637377,-16.572195 0.668587,-24.864054 2.4e-4,-0.06542 -0.0838,-6.699981 -0.0842,-7.492998 -2.7e-4,-0.623863 0.0194,-1.247574 0.0292,-1.871363 0,0 -1.960161,0 -1.960161,0 z" />
      <path
         style="fill:#ffffff;fill-opacity:1;stroke:none;stroke-width:12;stroke-linecap:round;stroke-linejoin:round;stroke-miterlimit:4;stroke-dasharray:none;stroke-opacity:1;paint-order:fill markers stroke"
         id="path6974-6"
         d="m 103.58355,30.53588 c 0.47503,11.40689 0.19664,22.81694 -0.13257,34.22354 -0.37355,13.00085 -1.13759,25.9833 -2.01712,38.95796 0,0 1.58585,0.01 1.58585,0.01 v 0 c 0.73668,-12.98265 1.42097,-25.96817 1.91047,-38.96294 0.30711,-8.28465 0.63738,-16.5722 0.66859,-24.86406 2.4e-4,-0.0654 -0.0838,-6.69998 -0.0842,-7.49299 -2.7e-4,-0.62387 0.0194,-1.24758 0.0292,-1.87137 0,0 -1.96017,0 -1.96017,0 z" />
      <path
         style="fill:#ffffff;fill-opacity:1;stroke:none;stroke-width:12;stroke-linecap:round;stroke-linejoin:round;stroke-miterlimit:4;stroke-dasharray:none;stroke-opacity:1;paint-order:fill markers stroke"
         id="path6978"
         d="m 18.411871,21.209492 c 1.489776,10.994094 1.337932,22.111824 1.217276,33.176998 -0.377944,15.576966 -2.017323,31.080115 -3.801612,46.54603 0,0 1.466402,0.0162 1.466402,0.0162 v 0 c 1.65144,-15.48414 3.222324,-30.991046 3.803407,-46.559947 0.225922,-11.071976 0.442529,-22.172612 -0.709144,-33.20734 0,0 -1.976329,0.02805 -1.976329,0.02805 z" />
      <path
         style="fill:#ffffff;fill-opacity:1;stroke:none;stroke-width:12;stroke-linecap:round;stroke-linejoin:round;stroke-miterlimit:4;stroke-dasharray:none;stroke-opacity:1;paint-order:fill markers stroke"
         id="path6994"
         d="m 37.720746,88.394264 c 0.589462,6.528625 0.898456,13.075706 1.164902,19.623906 0,0 1.758013,-0.007 1.758013,-0.007 v 0 c -0.283554,-6.54495 -0.585885,-13.088613 -0.979482,-19.627943 0,0 -1.943433,0.0114 -1.943433,0.0114 z" />
      <path
         style="fill:#000000;fill-opacity:1;stroke:none;stroke-width:12;stroke-linecap:round;stroke-linejoin:round;stroke-miterlimit:4;stroke-dasharray:none;stroke-opacity:1;paint-order:fill markers stroke"
         id="path7646"
         d="m 94.235531,12.104544 c 0.259318,4.86548 0.525049,9.731036 0.774372,14.597166 0.04893,1.110316 0.09787,2.220632 0.146806,3.330951 0,0 1.684086,-0.0075 1.684086,-0.0075 v 0 c -0.05042,-1.110607 -0.100832,-2.221211 -0.151246,-3.331818 -0.237379,-4.860026 -0.496887,-9.721274 -0.490535,-14.588769 0,0 -1.963483,0 -1.963483,0 z" />
      <path
         style="fill:#000000;fill-opacity:1;stroke:none;stroke-width:12;stroke-linecap:round;stroke-linejoin:round;stroke-miterlimit:4;stroke-dasharray:none;stroke-opacity:1;paint-order:fill markers stroke"
         id="path7650"
         d="m 78.999108,104.35701 c 0.106789,3.90224 0.08495,7.80635 0.141237,11.70937 0.04939,3.07435 0.02466,1.58504 0.07387,4.46795 0,0 1.801944,-0.004 1.801944,-0.004 v 0 c -0.08665,-2.88176 -0.04566,-1.39308 -0.121393,-4.46607 -0.04924,-3.90223 -0.03122,-7.80563 0.07115,-11.707 0,0 -1.966801,0 -1.966801,0 z" />
      <path
         style="fill:#000000;fill-opacity:1;stroke:none;stroke-width:12;stroke-linecap:round;stroke-linejoin:round;stroke-miterlimit:4;stroke-dasharray:none;stroke-opacity:1;paint-order:fill markers stroke"
         id="path7658"
         d="m 25.088163,13.171314 c 0.369185,4.930512 0.569293,9.870708 0.733145,14.811657 0.202239,5.754012 -0.02435,11.507615 -0.282634,17.255077 0,0 1.598096,0.007 1.598096,0.007 v 0 c 0.245782,-5.751475 0.464547,-11.509168 0.289753,-17.266727 -0.122169,-4.935657 -0.256305,-9.87105 -0.364919,-14.807008 0,0 -1.973441,0 -1.973441,0 z" />
      <path
         style="fill:#000000;fill-opacity:1;stroke:none;stroke-width:12;stroke-linecap:round;stroke-linejoin:round;stroke-miterlimit:4;stroke-dasharray:none;stroke-opacity:1;paint-order:fill markers stroke"
         id="path7660"
         d="m 46.771723,3.8661646 c 0.194054,5.2782697 0.148675,10.5559654 -0.05108,15.8327024 -0.06427,1.099227 -0.128546,2.198455 -0.192818,3.297683 0,0 1.686965,0.0093 1.686965,0.0093 v 0 c 0.05701,-1.100255 0.114025,-2.20051 0.171037,-3.300765 0.194143,-5.278781 0.240477,-10.5583225 0.352695,-15.8389134 0,0 -1.966802,0 -1.966802,0 z" />
      <path
         style="fill:#000000;fill-opacity:1;stroke:none;stroke-width:12;stroke-linecap:round;stroke-linejoin:round;stroke-miterlimit:4;stroke-dasharray:none;stroke-opacity:1;paint-order:fill markers stroke"
         id="path7664"
         d="m 20.695179,83.227676 c 0.115143,5.999636 0.432208,11.992004 0.692317,17.986374 0.27529,6.30297 0.146045,3.22767 0.389174,9.22585 0,0 1.584275,-0.007 1.584275,-0.007 v 0 c -0.302418,-5.99682 -0.156177,-2.92199 -0.435975,-9.22463 -0.20615,-5.989689 -0.468489,-11.986899 -0.259668,-17.980388 0,0 -1.970123,0 -1.970123,0 z" />
      <path
         style="fill:#000000;fill-opacity:1;stroke:none;stroke-width:12;stroke-linecap:round;stroke-linejoin:round;stroke-miterlimit:4;stroke-dasharray:none;stroke-opacity:1;paint-order:fill markers stroke"
         id="path7672"
         d="m 50.78936,122.11361 c 0.01124,-6.10896 0.325909,-12.21365 0.598546,-18.3153 0,0 -1.641208,-0.007 -1.641208,-0.007 v 0 c -0.232275,6.11104 -0.528423,12.21925 -0.924142,18.32208 0,0 1.966804,0 1.966804,0 z" />
      <path
         style="fill:#000000;fill-opacity:1;stroke:none;stroke-width:12;stroke-linecap:round;stroke-linejoin:round;stroke-miterlimit:4;stroke-dasharray:none;stroke-opacity:1;paint-order:fill markers stroke"
         id="path7678"
         d="m 102.31964,109.2468 c -0.57992,-4.9092 -0.74904,-9.86239 -0.93971,-14.799439 -0.10298,-3.287096 -0.0971,-6.575631 -0.0827,-9.86374 0,0 -1.73407,7.94e-4 -1.73407,7.94e-4 v 0 c 0.04604,3.289868 0.08846,6.579896 0.178393,9.86895 0.173765,4.938643 0.299267,9.883495 0.608297,14.815195 0,0 1.96982,-0.0218 1.96982,-0.0218 z" />
    </g>
  </g>
</svg>
