<?xml version="1.0" encoding="UTF-8" standalone="no"?>
<!-- Created with Inkscape (http://www.inkscape.org/) -->

<svg
   width="88.900002mm"
   height="17.4625mm"
   viewBox="0 0 88.900002 17.4625"
   version="1.1"
   id="svg5"
   inkscape:version="1.1.2 (b8e25be833, 2022-02-05)"
   sodipodi:docname="ipcv0-io.svg"
   xmlns:inkscape="http://www.inkscape.org/namespaces/inkscape"
   xmlns:sodipodi="http://sodipodi.sourceforge.net/DTD/sodipodi-0.dtd"
   xmlns="http://www.w3.org/2000/svg"
   xmlns:svg="http://www.w3.org/2000/svg">
  <sodipodi:namedview
     id="namedview7"
     pagecolor="#505050"
     bordercolor="#eeeeee"
     borderopacity="1"
     inkscape:pageshadow="0"
     inkscape:pageopacity="0"
     inkscape:pagecheckerboard="0"
     inkscape:document-units="mm"
     showgrid="false"
     inkscape:zoom="1.9830814"
     inkscape:cx="119.25884"
     inkscape:cy="56.982027"
     inkscape:window-width="1920"
     inkscape:window-height="1017"
     inkscape:window-x="-8"
     inkscape:window-y="-8"
     inkscape:window-maximized="1"
     inkscape:current-layer="layer1" />
  <defs
     id="defs2">
    <rect
       x="83.749962"
       y="548.42719"
       width="484.9393"
       height="159.3951"
       id="rect2498" />
  </defs>
  <g
     inkscape:label="Layer 1"
     inkscape:groupmode="layer"
     id="layer1"
     transform="translate(-97.21299,-149.80103)">
    <text
       xml:space="preserve"
       transform="scale(0.26458333)"
       id="text2496"
       style="font-style:normal;font-weight:normal;font-size:40px;line-height:1.25;font-family:sans-serif;white-space:pre;shape-inside:url(#rect2498);fill:#000000;fill-opacity:1;stroke:none" />
    <g
       aria-label="IPCv0.io"
       id="text2812"
       style="font-size:25.4px;line-height:1.25;stroke-width:0.264583">
      <path
         d="m 100.38799,167.26353 h -1.5875 v -1.5875 -1.5875 -1.5875 -1.5875 -1.5875 -1.5875 -1.5875 -1.5875 h -1.5875 v -1.5875 h 1.5875 v -1.5875 h 1.5875 v -1.5875 h 1.5875 v 1.5875 1.5875 1.5875 1.5875 1.5875 1.5875 1.5875 1.5875 1.5875 h 1.5875 v 1.5875 h -1.5875 v 1.5875 z"
         style="font-family:Alagard;-inkscape-font-specification:Alagard;fill:#ffffff"
         id="path23054" />
      <path
         d="m 108.32549,167.26353 h -1.5875 v -1.5875 -1.5875 -1.5875 -1.5875 -1.5875 -1.5875 -1.5875 -1.5875 h -1.5875 v -1.5875 h 1.5875 v -1.5875 h 1.5875 v -1.5875 h 1.5875 v 1.5875 h 1.5875 v 1.5875 h -1.5875 v 1.5875 1.5875 1.5875 1.5875 h 1.5875 1.5875 1.5875 v 1.5875 h -1.5875 v 1.5875 h -1.5875 -1.5875 v 1.5875 h 1.5875 v 1.5875 h -1.5875 v 1.5875 z m 6.35,-7.9375 v -1.5875 -1.5875 -1.5875 -1.5875 h -1.5875 v -1.5875 h -1.5875 v -1.5875 h 1.5875 1.5875 1.5875 v 1.5875 h 1.5875 v 1.5875 1.5875 1.5875 1.5875 h -1.5875 v 1.5875 z"
         style="font-family:Alagard;-inkscape-font-specification:Alagard;fill:#ffffff"
         id="path23056" />
      <path
         d="m 127.37549,165.67603 h 1.5875 v 1.5875 h -1.5875 -1.5875 -1.5875 -1.5875 v -1.5875 h -1.5875 v -1.5875 h -1.5875 v -1.5875 -1.5875 -1.5875 -1.5875 -1.5875 -1.5875 h 1.5875 v -1.5875 h 1.5875 v 1.5875 1.5875 1.5875 1.5875 1.5875 1.5875 h 1.5875 v 1.5875 h 1.5875 v 1.5875 z m 1.5875,0 v -1.5875 h 1.5875 v 1.5875 z m 1.5875,-1.5875 v -1.5875 h 1.5875 v 1.5875 z m 0,-9.525 h -1.5875 -1.5875 v -1.5875 h -1.5875 v -1.5875 h -1.5875 v 1.5875 h -1.5875 v -1.5875 h 1.5875 v -1.5875 h 1.5875 1.5875 1.5875 v 1.5875 h 1.5875 v -1.5875 h 1.5875 v 1.5875 1.5875 1.5875 z"
         style="font-family:Alagard;-inkscape-font-specification:Alagard;fill:#ffffff"
         id="path23058" />
      <path
         d="m 140.07549,167.26353 h -1.5875 v -1.5875 h -1.5875 v -1.5875 h -1.5875 v -1.5875 -1.5875 -1.5875 h -1.5875 v -1.5875 h 1.5875 v -1.5875 h 1.5875 v -1.5875 h 1.5875 v 1.5875 1.5875 1.5875 1.5875 1.5875 h 1.5875 v 1.5875 h 1.5875 1.5875 v 1.5875 h -1.5875 v 1.5875 z m 3.175,-3.175 v -1.5875 -1.5875 -1.5875 -1.5875 -1.5875 h 1.5875 v -1.5875 h 1.5875 v 1.5875 1.5875 1.5875 1.5875 1.5875 h -1.5875 v 1.5875 z"
         style="font-family:Alagard;-inkscape-font-specification:Alagard;fill:#ffffff"
         id="path23060" />
      <path
         d="m 154.36299,167.26353 h -1.5875 -1.5875 v -1.5875 h -1.5875 v -1.5875 h -1.5875 v -1.5875 -1.5875 -1.5875 -1.5875 -1.5875 -1.5875 -1.5875 h 1.5875 v -1.5875 h 1.5875 v 1.5875 1.5875 1.5875 1.5875 1.5875 h 1.5875 v 1.5875 h -1.5875 v 1.5875 h 1.5875 v 1.5875 h 1.5875 v 1.5875 h 1.5875 v 1.5875 z m 1.5875,-1.5875 v -1.5875 -1.5875 -1.5875 -1.5875 -1.5875 h -1.5875 v 1.5875 h -1.5875 v -1.5875 h 1.5875 v -1.5875 h 1.5875 v -1.5875 h -1.5875 v -1.5875 h -1.5875 v -1.5875 h -1.5875 v -1.5875 h 1.5875 1.5875 1.5875 v 1.5875 h 1.5875 v 1.5875 h 1.5875 v 1.5875 1.5875 1.5875 1.5875 1.5875 1.5875 1.5875 h -1.5875 v 1.5875 z"
         style="font-family:Alagard;-inkscape-font-specification:Alagard;fill:#ffffff"
         id="path23062" />
      <path
         d="m 163.88799,167.26353 h -1.5875 v -1.5875 -1.5875 h 1.5875 1.5875 v 1.5875 1.5875 z"
         style="font-family:Alagard;-inkscape-font-specification:Alagard;fill:#ffffff"
         id="path23064" />
      <path
         d="m 168.65049,154.56353 v -1.5875 -1.5875 h 1.5875 v -1.5875 h 1.5875 v 1.5875 1.5875 h -1.5875 v 1.5875 z m 1.5875,12.7 h -1.5875 v -1.5875 -1.5875 -1.5875 -1.5875 h -1.5875 v -1.5875 h 1.5875 v -1.5875 h 1.5875 v -1.5875 h 1.5875 v 1.5875 1.5875 1.5875 1.5875 1.5875 h 1.5875 v 1.5875 h -1.5875 v 1.5875 z"
         style="font-family:Alagard;-inkscape-font-specification:Alagard;fill:#ffffff"
         id="path23066" />
      <path
         d="m 181.35049,167.26353 h -1.5875 -1.5875 v -1.5875 h -1.5875 v -1.5875 h -1.5875 v -1.5875 -1.5875 -1.5875 -1.5875 h 1.5875 v -1.5875 h 1.5875 v 1.5875 1.5875 1.5875 1.5875 h 1.5875 v 1.5875 h 1.5875 v 1.5875 h 1.5875 v 1.5875 z m 1.5875,-1.5875 v -1.5875 -1.5875 -1.5875 -1.5875 h -1.5875 v -1.5875 h -1.5875 v -1.5875 h -1.5875 v -1.5875 h 1.5875 1.5875 1.5875 v 1.5875 h 1.5875 v 1.5875 h 1.5875 v 1.5875 1.5875 1.5875 1.5875 h -1.5875 v 1.5875 z"
         style="font-family:Alagard;-inkscape-font-specification:Alagard;fill:#ffffff"
         id="path23068" />
    </g>
  </g>
</svg>
